# xmcd
#
# Track frame offsets: 
#        150
#        21046
#        34776
#        60996
#        77877
#        99031
#        118963
#        138569
#
# Disc length: 2094 seconds
#
# Revision: 2
# Processed by: cddbd v1.5.2PL0 Copyright (c) Steve Scherf et al.
# Submitted via: ExactAudioCopyFreeDBPlugin 1.0
#
DISCID=5f082c08
DTITLE=Ronnie Laws - Every Generation
DYEAR=1980
DGENRE=Jazz+Funk
TTITLE0=Young Child
TTITLE1=Never Get Back To Houston
TTITLE2=Every Generaton
TTITLE3=Tomorrow
TTITLE4=O.T.B.A. Law (Outta Be A Law)
TTITLE5=Love's Victory
TTITLE6=Thoughts and Memories
TTITLE7=As One
EXTD=
EXTT0=
EXTT1=
EXTT2=
EXTT3=
EXTT4=
EXTT5=
EXTT6=
EXTT7=
PLAYORDER=
